<svg width="26" height="26" viewBox="0 0 26 26" fill="none" xmlns="http://www.w3.org/2000/svg">
<path d="M26 10.0054C26 9.60404 25.7084 9.35462 25.1248 9.2569L17.2813 8.06947L13.7657 0.666938C13.5679 0.222237 13.3125 0 13.0001 0C12.6877 0 12.4324 0.222237 12.2345 0.666938L8.71875 8.06947L0.874885 9.2569C0.291701 9.35462 0 9.60404 0 10.0054C0 10.2333 0.130253 10.4936 0.390705 10.7864L6.07828 16.5456L4.73454 24.68C4.71369 24.8319 4.70334 24.9407 4.70334 25.0055C4.70334 25.2333 4.75796 25.4257 4.86731 25.5831C4.9766 25.7407 5.14056 25.8191 5.35942 25.8191C5.54703 25.8191 5.75527 25.7543 5.98442 25.6241L12.9999 21.7842L20.0159 25.6241C20.235 25.7543 20.4433 25.8191 20.6407 25.8191C20.8497 25.8191 21.0082 25.7407 21.1175 25.5831C21.2266 25.4259 21.2812 25.2333 21.2812 25.0055C21.2812 24.8647 21.276 24.7563 21.2655 24.68L19.9217 16.5456L25.5935 10.7864C25.8648 10.5044 26 10.244 26 10.0054Z" fill="#FF9900"/>
</svg>
